walking_03
version=1
nRows=11
nColumns=46
inDegrees=yes
endheader
time	ground_force3_vx	ground_force3_vy	ground_force3_vz	ground_force3_px	ground_force3_py	ground_force3_pz	ground_torque3_x	ground_torque3_y	ground_torque3_z	ground_force5_vx	ground_force5_vy	ground_force5_vz	ground_force5_px	ground_force5_py	ground_force5_pz	ground_torque5_x	ground_torque5_y	ground_torque5_z	ground_force4_vx	ground_force4_vy	ground_force4_vz	ground_force4_px	ground_force4_py	ground_force4_pz	ground_torque4_x	ground_torque4_y	ground_torque4_z	ground_force1_vx	ground_force1_vy	ground_force1_vz	ground_force1_px	ground_force1_py	ground_force1_pz	ground_torque1_x	ground_torque1_y	ground_torque1_z	ground_force2_vx	ground_force2_vy	ground_force2_vz	ground_force2_px	ground_force2_py	ground_force2_pz	ground_torque2_x	ground_torque2_y	ground_torque2_z
3.760000	-0.000000	-0.000000	0.000000	0.200000	0.000000	-0.300000	0.000000	0.000000	-0.000000	-0.000000	-0.000000	0.000000	0.200000	0.000000	-1.504000	0.000000	0.000000	-0.000000	-0.000000	-0.000000	0.000000	0.200000	0.000000	-0.902000	0.000000	0.000000	-0.000000	-4.596170	216.875671	-71.854347	0.257198	0.000000	0.748705	-0.000003	-0.387911	0.000005	-0.000000	-0.000000	0.000000	0.400000	0.000000	0.302000	0.000000	0.000000	-0.000000	
3.761000	-0.000000	-0.000000	0.000000	0.200000	0.000000	-0.300000	0.000000	0.000000	-0.000000	-0.000000	-0.000000	0.000000	0.200000	0.000000	-1.504000	0.000000	0.000000	-0.000000	-0.000000	-0.000000	0.000000	0.200000	0.000000	-0.902000	0.000000	0.000000	-0.000000	-4.913952	207.410492	-67.504639	0.258362	0.000000	0.750621	-0.000016	-0.240247	0.000000	-0.000000	-0.000000	0.000000	0.400000	0.000000	0.302000	0.000000	0.000000	-0.000000	
3.762000	-0.000000	-0.000000	0.000000	0.200000	0.000000	-0.300000	0.000000	0.000000	-0.000000	-0.000000	-0.000000	0.000000	0.200000	0.000000	-1.504000	0.000000	0.000000	-0.000000	-0.000000	-0.000000	0.000000	0.200000	0.000000	-0.902000	0.000000	0.000000	-0.000000	-4.101456	195.424210	-65.089836	0.258481	0.000000	0.746316	-0.000002	-0.273399	0.000001	-0.000000	-0.000000	0.000000	0.400000	0.000000	0.302000	0.000000	0.000000	-0.000000	
3.763000	-0.000000	-0.000000	0.000000	0.200000	0.000000	-0.300000	0.000000	0.000000	-0.000000	-0.000000	-0.000000	0.000000	0.200000	0.000000	-1.504000	0.000000	0.000000	-0.000000	-0.000000	-0.000000	0.000000	0.200000	0.000000	-0.902000	0.000000	0.000000	-0.000000	-4.744754	182.805481	-62.028645	0.256803	0.000000	0.747707	-0.000009	-0.274360	0.000003	-0.000000	-0.000000	0.000000	0.400000	0.000000	0.302000	0.000000	0.000000	-0.000000	
3.764000	-0.000000	-0.000000	0.000000	0.200000	0.000000	-0.300000	0.000000	0.000000	-0.000000	-0.000000	-0.000000	0.000000	0.200000	0.000000	-1.504000	0.000000	0.000000	-0.000000	-0.000000	-0.000000	0.000000	0.200000	0.000000	-0.902000	0.000000	0.000000	-0.000000	-3.605026	173.658035	-58.645538	0.258122	0.000000	0.747965	-0.000005	-0.218215	0.000002	-0.000000	-0.000000	0.000000	0.400000	0.000000	0.302000	0.000000	0.000000	-0.000000	
3.765000	-0.000000	-0.000000	0.000000	0.200000	0.000000	-0.300000	0.000000	0.000000	-0.000000	-0.000000	-0.000000	0.000000	0.200000	0.000000	-1.504000	0.000000	0.000000	-0.000000	-0.000000	-0.000000	0.000000	0.200000	0.000000	-0.902000	0.000000	0.000000	-0.000000	-3.763058	165.138214	-55.585197	0.257288	0.000000	0.750303	-0.000008	-0.232806	0.000002	-0.000000	-0.000000	0.000000	0.400000	0.000000	0.302000	0.000000	0.000000	-0.000000	
3.766000	-0.000000	-0.000000	0.000000	0.200000	0.000000	-0.300000	0.000000	0.000000	-0.000000	-0.000000	-0.000000	0.000000	0.200000	0.000000	-1.504000	0.000000	0.000000	-0.000000	-0.000000	-0.000000	0.000000	0.200000	0.000000	-0.902000	0.000000	0.000000	-0.000000	-3.599872	154.730820	-52.686241	0.255826	0.000000	0.745312	-0.000002	-0.463974	0.000004	-0.000000	-0.000000	0.000000	0.400000	0.000000	0.302000	0.000000	0.000000	-0.000000	
3.767000	-0.000000	-0.000000	0.000000	0.200000	0.000000	-0.300000	0.000000	0.000000	-0.000000	-0.000000	-0.000000	0.000000	0.200000	0.000000	-1.504000	0.000000	0.000000	-0.000000	-0.000000	-0.000000	0.000000	0.200000	0.000000	-0.902000	0.000000	0.000000	-0.000000	-3.757904	146.846252	-49.145145	0.256338	0.000000	0.745087	-0.000010	-0.320355	0.000001	-0.000000	-0.000000	0.000000	0.400000	0.000000	0.302000	0.000000	0.000000	-0.000000	
3.768000	-0.000000	-0.000000	0.000000	0.200000	0.000000	-0.300000	0.000000	0.000000	-0.000000	-0.000000	-0.000000	0.000000	0.200000	0.000000	-1.504000	0.000000	0.000000	-0.000000	-0.000000	-0.000000	0.000000	0.200000	0.000000	-0.902000	0.000000	0.000000	-0.000000	-3.590423	135.809540	-45.440971	0.258344	0.000000	0.741833	-0.000005	-0.129565	0.000001	-0.000000	-0.000000	0.000000	0.400000	0.000000	0.302000	0.000000	0.000000	-0.000000	
3.769000	-0.000000	-0.000000	0.000000	0.200000	0.000000	-0.300000	0.000000	0.000000	-0.000000	-0.000000	-0.000000	0.000000	0.200000	0.000000	-1.504000	0.000000	0.000000	-0.000000	-0.000000	-0.000000	0.000000	0.200000	0.000000	-0.902000	0.000000	0.000000	-0.000000	-3.263191	128.235092	-41.414879	0.257840	0.000000	0.744658	-0.000006	-0.286243	0.000000	-0.000000	-0.000000	0.000000	0.400000	0.000000	0.302000	0.000000	0.000000	-0.000000	
3.770000	-0.000000	-0.000000	0.000000	0.200000	0.000000	-0.300000	0.000000	0.000000	-0.000000	-0.000000	-0.000000	0.000000	0.200000	0.000000	-1.504000	0.000000	0.000000	-0.000000	-0.000000	-0.000000	0.000000	0.200000	0.000000	-0.902000	0.000000	0.000000	-0.000000	-3.584411	121.924530	-37.712402	0.258583	0.000000	0.743881	0.000002	-0.244805	0.000003	-0.000000	-0.000000	0.000000	0.400000	0.000000	0.302000	0.000000	0.000000	-0.000000	
